<?xml version="1.0" standalone="no"?>
<!DOCTYPE svg PUBLIC "-//W3C//DTD SVG 20010904//EN"
 "http://www.w3.org/TR/2001/REC-SVG-20010904/DTD/svg10.dtd">
<svg version="1.0" xmlns="http://www.w3.org/2000/svg"
 width="479.000000pt" height="282.000000pt" viewBox="0 0 479.000000 282.000000"
 preserveAspectRatio="xMidYMid meet">
<metadata>
Created by potrace 1.15, written by Peter Selinger 2001-2017
</metadata>
<g transform="translate(0.000000,282.000000) scale(0.100000,-0.100000)"
fill="#000000" stroke="none">
<path d="M2722 2660 c0 -40 2 -47 7 -26 9 42 29 44 34 4 l5 -33 -2 35 c-1 24
-6 35 -16 35 -8 0 -18 9 -22 20 -3 11 -6 -4 -6 -35z"/>
<path d="M2883 2660 c-1 -39 1 -47 6 -26 9 41 31 46 31 7 0 -17 5 -31 10 -31
12 0 13 40 1 59 -5 8 -16 11 -24 8 -11 -4 -17 1 -20 16 -2 12 -4 -3 -4 -33z"/>
<path d="M1712 2693 c12 -3 18 -17 21 -46 l4 -42 1 42 c2 30 7 43 20 46 9 3
-1 5 -23 5 -22 0 -32 -2 -23 -5z"/>
<path d="M1970 2692 c0 -6 9 -8 20 -5 13 4 20 0 20 -9 0 -8 -9 -23 -20 -33
-27 -25 -25 -35 8 -34 18 1 21 3 9 6 -17 4 -17 6 -2 23 22 24 15 54 -13 58
-12 2 -22 -1 -22 -6z"/>
<path d="M2051 2678 c-11 -30 2 -63 25 -63 27 0 28 78 1 83 -11 2 -20 -5 -26
-20z m39 -23 c0 -24 -5 -35 -15 -35 -10 0 -15 11 -15 35 0 24 5 35 15 35 10 0
15 -11 15 -35z"/>
<path d="M2172 2688 c-27 -27 -7 -78 29 -78 10 0 20 4 23 9 3 4 -5 6 -18 4
-17 -4 -26 0 -30 15 -10 31 4 54 30 49 13 -2 21 0 18 4 -8 13 -38 11 -52 -3z"/>
<path d="M2278 2687 c-7 -21 6 -70 20 -73 7 -1 8 0 2 3 -12 6 -13 50 -1 55 5
2 3 8 -4 15 -10 9 -14 9 -17 0z"/>
<path d="M2668 2687 c-7 -21 6 -70 20 -73 7 -1 8 0 2 3 -12 6 -13 50 -1 55 5
2 3 8 -4 15 -10 9 -14 9 -17 0z"/>
<path d="M2832 2660 c2 -36 7 -45 23 -48 18 -2 18 -2 3 8 -10 6 -18 20 -18 30
0 12 7 20 18 21 13 0 14 2 2 6 -8 3 -18 11 -23 17 -4 6 -6 -9 -5 -34z"/>
<path d="M3322 2660 c2 -36 7 -45 23 -48 18 -2 18 -2 3 8 -10 6 -18 20 -18 30
0 12 7 20 18 21 13 0 14 2 2 6 -8 3 -18 11 -23 17 -4 6 -6 -9 -5 -34z"/>
<path d="M3411 2653 c1 -27 4 -38 6 -25 5 27 29 29 38 2 3 -11 11 -20 16 -20
6 0 5 8 -1 20 -6 11 -10 26 -9 33 3 28 -2 37 -26 37 -23 0 -25 -3 -24 -47z
m39 22 c0 -8 -7 -15 -15 -15 -8 0 -15 7 -15 15 0 8 7 15 15 15 8 0 15 -7 15
-15z"/>
<path d="M3628 2687 c-7 -21 6 -70 20 -73 7 -1 8 0 2 3 -12 6 -13 50 -1 55 5
2 3 8 -4 15 -10 9 -14 9 -17 0z"/>
<path d="M4028 2687 c-7 -21 6 -70 20 -73 7 -1 8 0 2 3 -12 6 -13 50 -1 55 5
2 3 8 -4 15 -10 9 -14 9 -17 0z"/>
<path d="M1784 2666 c-10 -26 1 -51 22 -54 24 -3 38 20 29 49 -7 22 -43 25
-51 5z m43 -12 c8 -21 -13 -42 -28 -27 -13 13 -5 43 11 43 6 0 13 -7 17 -16z"/>
<path d="M1861 2628 c1 -29 3 -45 6 -35 2 9 11 17 18 17 8 0 19 8 24 18 12 23
-4 52 -29 52 -18 0 -20 -7 -19 -52z m39 17 c0 -26 -14 -33 -25 -15 -9 14 1 40
15 40 5 0 10 -11 10 -25z"/>
<path d="M2253 2645 c0 -22 2 -30 4 -17 2 12 2 30 0 40 -3 9 -5 -1 -4 -23z"/>
<path d="M2333 2645 c0 -22 2 -30 4 -17 2 12 2 30 0 40 -3 9 -5 -1 -4 -23z"/>
<path d="M2364 2666 c-11 -28 1 -51 26 -53 l25 -3 -25 12 -25 12 28 4 c29 4
33 12 15 30 -16 16 -37 15 -44 -2z m41 -6 c3 -5 -3 -10 -15 -10 -12 0 -18 5
-15 10 3 6 10 10 15 10 5 0 12 -4 15 -10z"/>
<path d="M2435 2670 c-8 -14 3 -30 21 -30 23 0 16 -20 -8 -21 -19 -1 -20 -2
-4 -6 10 -3 23 0 30 7 8 8 5 16 -13 30 l-25 18 25 5 c22 4 22 4 2 6 -12 0 -25
-3 -28 -9z"/>
<path d="M2541 2648 c5 -18 9 -34 9 -36 0 -2 5 0 10 3 6 3 10 16 10 28 1 19 3
18 14 -8 13 -31 20 -27 30 20 6 29 6 30 -7 6 l-14 -23 -7 23 -6 24 -15 -25
c-10 -18 -14 -20 -15 -8 0 9 -4 19 -9 23 -6 3 -6 -7 0 -27z"/>
<path d="M2643 2645 c0 -22 2 -30 4 -17 2 12 2 30 0 40 -3 9 -5 -1 -4 -23z"/>
<path d="M2960 2665 c-18 -22 -1 -49 31 -52 19 -1 20 -1 4 4 -34 9 -41 23 -11
23 21 0 27 4 24 17 -4 24 -32 28 -48 8z m40 -5 c0 -5 -9 -10 -21 -10 -11 0
-17 5 -14 10 3 6 13 10 21 10 8 0 14 -4 14 -10z"/>
<path d="M3071 2640 c1 -34 1 -34 8 -6 9 43 31 45 32 4 l1 -33 7 29 c9 41 31
46 31 7 0 -17 5 -31 10 -31 12 0 13 40 2 56 -4 6 -26 11 -49 10 -43 0 -43 -1
-42 -36z"/>
<path d="M3190 2665 c-17 -21 -2 -50 26 -50 14 0 19 7 19 30 0 34 -24 45 -45
20z m37 -11 c8 -22 -15 -44 -26 -25 -10 16 -4 41 10 41 5 0 12 -7 16 -16z"/>
<path d="M3260 2665 c0 -9 7 -18 15 -21 20 -8 19 -21 -2 -27 -14 -4 -12 -5 5
-6 16 -1 22 5 22 19 0 11 -7 20 -15 20 -21 0 -19 18 3 23 13 4 11 5 -5 6 -15
1 -23 -5 -23 -14z"/>
<path d="M3494 2666 c-11 -28 1 -51 26 -53 l25 -3 -25 12 -25 12 28 4 c29 4
33 12 15 30 -16 16 -37 15 -44 -2z m41 -6 c3 -5 -3 -10 -15 -10 -12 0 -18 5
-15 10 3 6 10 10 15 10 5 0 12 -4 15 -10z"/>
<path d="M3565 2670 c-8 -14 3 -30 21 -30 23 0 16 -20 -8 -21 -19 -1 -20 -2
-4 -6 10 -3 23 0 30 7 8 8 5 16 -13 30 l-25 18 25 5 c22 4 22 4 2 6 -12 0 -25
-3 -28 -9z"/>
<path d="M3700 2669 l25 -12 -25 -6 c-35 -9 -32 -36 3 -37 26 -1 28 2 25 30
-2 25 -8 31 -28 33 l-25 3 25 -11z m15 -39 c-3 -5 -10 -10 -16 -10 -5 0 -9 5
-9 10 0 6 7 10 16 10 8 0 12 -4 9 -10z"/>
<path d="M3753 2650 c2 -30 6 -35 30 -38 25 -3 27 -1 27 32 0 20 -4 36 -10 36
-5 0 -10 -14 -10 -31 0 -39 -22 -34 -32 7 -6 27 -6 27 -5 -6z"/>
<path d="M3831 2640 c1 -27 3 -29 6 -10 2 14 11 30 20 37 13 10 13 12 -6 10
-17 -1 -21 -7 -20 -37z"/>
<path d="M3900 2668 c25 -11 25 -11 3 -15 -34 -6 -31 -43 2 -41 22 2 26 7 23
33 -2 24 -8 30 -28 32 l-25 3 25 -12z m15 -38 c-3 -5 -10 -10 -16 -10 -5 0 -9
5 -9 10 0 6 7 10 16 10 8 0 12 -4 9 -10z"/>
<path d="M3951 2643 l1 -38 9 33 c12 39 31 37 41 -4 6 -27 6 -27 5 6 -2 30 -6
35 -29 38 -26 3 -28 1 -27 -35z"/>
<path d="M4075 2670 c-8 -14 3 -30 21 -30 20 0 18 -18 -3 -23 -16 -4 -16 -5
-1 -6 24 -2 34 20 15 34 -22 16 -21 22 1 28 13 4 12 5 -5 6 -12 0 -25 -3 -28
-9z"/>
<path d="M1240 2491 c0 -46 -4 -71 -12 -74 -10 -4 -10 -6 0 -6 7 -1 12 -17 12
-45 0 -26 -5 -46 -12 -49 -10 -4 -10 -6 0 -6 7 -1 12 -17 12 -45 0 -26 -5 -46
-12 -49 -10 -4 -10 -6 0 -6 7 -1 12 -17 12 -45 0 -26 -5 -46 -12 -49 -10 -4
-10 -6 0 -6 7 -1 12 -17 12 -45 0 -26 -5 -46 -12 -49 -10 -4 -10 -6 0 -6 7 -1
12 -17 12 -45 0 -26 -5 -46 -12 -49 -10 -4 -10 -6 0 -6 7 -1 12 -17 12 -45 0
-26 -5 -46 -12 -49 -10 -4 -10 -6 0 -6 16 -1 16 -88 0 -94 -10 -4 -10 -6 0 -6
7 -1 12 -17 12 -45 0 -26 -5 -46 -12 -49 -10 -4 -10 -6 0 -6 7 -1 12 -17 12
-45 0 -26 -5 -46 -12 -49 -10 -4 -10 -6 0 -6 7 -1 12 -17 12 -45 0 -26 -5 -46
-12 -49 -10 -4 -10 -6 0 -6 16 -1 16 -88 0 -94 -10 -4 -10 -6 0 -6 16 -1 16
-88 0 -94 -10 -4 -10 -6 0 -6 7 -1 12 -17 12 -45 0 -26 -5 -46 -12 -49 -10 -4
-10 -6 0 -6 16 -1 16 -88 0 -94 -10 -4 -10 -6 0 -6 16 -1 16 -88 0 -94 -10 -4
-10 -6 0 -6 7 -1 12 -17 12 -45 0 -26 -5 -46 -12 -49 -10 -4 -10 -6 0 -6 16
-1 16 -88 0 -94 -10 -4 -10 -6 0 -6 16 -1 16 -88 0 -94 -10 -4 -10 -6 0 -6 16
-1 16 -88 0 -94 -10 -4 -10 -6 0 -6 8 -1 12 -26 13 -88 1 -49 3 -80 6 -71 4
17 24 18 233 18 209 0 229 -1 233 -17 4 -17 5 -17 6 0 1 16 19 17 235 17 215
0 235 -1 239 -18 4 -16 5 -16 6 1 1 16 19 17 230 17 210 0 230 -1 234 -18 4
-16 5 -16 6 1 1 16 19 17 230 17 210 0 230 -1 234 -17 4 -17 5 -17 6 0 1 16
19 17 230 17 210 0 230 -1 234 -17 4 -17 5 -17 6 0 1 16 19 17 235 17 215 0
235 -1 239 -17 4 -17 5 -17 6 0 1 16 19 17 230 17 210 0 230 -1 234 -17 4 -17
5 -17 6 0 1 10 9 17 21 17 20 0 20 7 20 1095 l0 1095 -1680 0 -1680 0 0 -69z
m3350 -1026 l0 -1085 -1670 0 -1670 0 0 1085 0 1085 1670 0 1670 0 0 -1085z"/>
<path d="M337 2443 c-13 -13 -7 -30 16 -40 l22 -11 -25 -10 c-24 -10 -24 -11
-3 -11 32 -1 40 19 15 40 -27 21 -27 26 -4 32 14 4 14 5 1 6 -9 0 -19 -2 -22
-6z"/>
<path d="M551 2413 c-1 -36 2 -43 18 -43 10 0 21 7 25 15 7 20 -3 45 -19 45
-7 0 -16 6 -18 13 -3 6 -6 -7 -6 -30z m34 -13 c0 -7 -6 -15 -12 -17 -8 -3 -13
4 -13 17 0 13 5 20 13 18 6 -3 12 -11 12 -18z"/>
<path d="M902 2410 c1 -29 3 -35 5 -17 5 33 25 31 34 -4 4 -14 7 -17 8 -7 2
25 -10 48 -24 48 -7 0 -16 6 -18 13 -3 6 -5 -8 -5 -33z"/>
<path d="M1030 2435 c-26 -31 13 -82 44 -56 19 16 21 42 4 59 -16 16 -33 15
-48 -3z m45 -25 c0 -15 -6 -26 -16 -28 -19 -3 -31 21 -22 43 9 25 38 13 38
-15z"/>
<path d="M1101 2408 c2 -30 3 -35 6 -15 5 34 19 35 27 2 10 -40 26 -29 24 18
-1 40 -1 40 -5 7 l-5 -35 -13 33 c-19 45 -35 40 -34 -10z"/>
<path d="M394 2415 c-9 -23 3 -45 23 -44 17 1 17 2 1 6 -10 2 -18 13 -18 23 0
10 8 21 18 23 16 4 16 5 -1 6 -10 0 -20 -6 -23 -14z"/>
<path d="M464 2422 c19 -8 19 -9 -3 -15 -28 -7 -23 -31 8 -35 19 -3 22 0 19
25 -2 19 -9 29 -23 30 -19 3 -19 3 -1 -5z m16 -32 c0 -5 -7 -10 -16 -10 -8 0
-12 5 -9 10 3 6 10 10 16 10 5 0 9 -4 9 -10z"/>
<path d="M511 2398 c2 -28 2 -29 6 -8 3 14 10 28 17 32 7 5 5 8 -6 8 -14 0
-18 -8 -17 -32z"/>
<path d="M614 2415 c-8 -21 2 -45 20 -45 17 0 28 24 20 45 -4 8 -13 15 -20 15
-8 0 -17 -7 -20 -15z m31 -15 c0 -7 -6 -15 -12 -17 -8 -3 -13 4 -13 17 0 13 5
20 13 18 6 -3 12 -11 12 -18z"/>
<path d="M671 2398 c2 -28 2 -29 6 -8 3 14 10 28 17 32 7 5 5 8 -6 8 -14 0
-18 -8 -17 -32z"/>
<path d="M714 2416 c-9 -24 4 -48 23 -44 12 2 18 12 18 28 0 29 -32 41 -41 16z
m31 -16 c0 -7 -6 -15 -12 -17 -8 -3 -13 4 -13 17 0 13 5 20 13 18 6 -3 12 -11
12 -18z"/>
<path d="M774 2400 c1 -18 7 -26 24 -28 19 -3 22 1 21 30 -2 30 -2 31 -6 6 -5
-34 -30 -37 -36 -5 -3 19 -4 19 -3 -3z"/>
<path d="M836 2415 c-8 -22 3 -45 23 -46 13 0 12 -2 -4 -10 l-20 -9 20 3 c15
2 21 11 23 40 3 31 0 37 -16 37 -11 0 -22 -7 -26 -15z m34 -15 c0 -21 -15 -27
-25 -10 -7 12 2 30 16 30 5 0 9 -9 9 -20z"/>
<path d="M644 2336 c-3 -8 -4 -25 -2 -38 4 -29 51 -33 56 -5 2 11 -3 17 -15
16 -10 0 -13 -3 -5 -6 19 -8 14 -23 -8 -23 -31 0 -28 57 3 63 l22 4 -23 2
c-12 0 -25 -5 -28 -13z"/>
<path d="M753 2310 c0 -25 2 -35 4 -22 2 12 2 32 0 45 -2 12 -4 2 -4 -23z"/>
<path d="M770 2312 c0 -39 2 -43 23 -40 28 4 36 45 10 55 -10 4 -21 11 -25 17
-4 6 -8 -8 -8 -32z m40 -12 c0 -11 -4 -20 -9 -20 -14 0 -23 18 -16 30 10 17
25 11 25 -10z"/>
<path d="M1050 2324 c-21 -57 -21 -55 0 -42 14 9 22 9 34 -1 14 -12 15 -10 5
20 -17 50 -27 56 -39 23z m24 -9 c3 -9 0 -15 -9 -15 -9 0 -12 6 -9 15 4 8 7
15 9 15 2 0 5 -7 9 -15z"/>
<path d="M1128 2343 l22 -4 -20 -26 c-27 -34 -25 -43 8 -42 23 2 24 2 4 6
l-22 4 20 29 c26 37 25 40 -7 39 -24 -2 -25 -2 -5 -6z"/>
<path d="M923 2332 c-19 -3 -23 -9 -22 -35 2 -30 2 -31 6 -4 5 34 33 36 33 2
0 -17 5 -25 18 -24 10 0 12 3 5 6 -16 6 -17 40 -1 45 19 7 -13 15 -39 10z"/>
<path d="M722 2300 c0 -19 2 -27 5 -17 2 9 2 25 0 35 -3 9 -5 1 -5 -18z"/>
<path d="M855 2321 c19 -9 19 -10 -4 -10 -17 -1 -22 -5 -17 -17 3 -9 6 -18 6
-20 0 -2 10 -4 23 -3 21 0 21 1 -3 11 l-25 11 23 5 c27 4 24 26 -4 29 -18 3
-18 2 1 -6z"/>
<path d="M544 2236 c-3 -8 -4 -25 -2 -38 4 -29 51 -33 56 -5 2 11 -3 17 -15
16 -10 0 -13 -3 -5 -6 19 -8 14 -23 -8 -23 -31 0 -28 57 3 63 l22 4 -23 2
c-12 0 -25 -5 -28 -13z"/>
<path d="M623 2210 c0 -25 2 -35 4 -22 2 12 2 32 0 45 -2 12 -4 2 -4 -23z"/>
<path d="M810 2241 c0 -5 -9 -11 -21 -14 -29 -8 -22 -51 9 -55 20 -3 22 1 22
37 0 23 -2 41 -5 41 -3 0 -5 -4 -5 -9z m-5 -41 c0 -7 -6 -15 -12 -17 -8 -3
-13 4 -13 17 0 13 5 20 13 18 6 -3 12 -11 12 -18z"/>
<path d="M903 2210 c0 -25 2 -35 4 -22 2 12 2 32 0 45 -2 12 -4 2 -4 -23z"/>
<path d="M1067 2244 c-11 -11 -9 -26 3 -19 6 3 10 -1 10 -10 0 -11 -5 -15 -14
-12 -14 6 -32 -21 -21 -31 3 -3 5 0 5 6 0 16 37 15 43 0 4 -9 6 -8 6 2 0 24
-23 72 -32 64z"/>
<path d="M1128 2243 c27 -5 27 -8 1 -44 l-20 -29 33 1 c28 1 30 2 10 8 l-24 6
21 27 c28 35 27 38 -11 37 -24 -1 -27 -3 -10 -6z"/>
<path d="M644 2216 c-10 -25 3 -46 28 -45 23 0 23 0 -2 11 l-25 11 23 5 c13 2
21 9 19 15 -6 19 -36 20 -43 3z m33 -2 c-3 -3 -12 -4 -19 -1 -8 3 -5 6 6 6 11
1 17 -2 13 -5z"/>
<path d="M711 2198 c2 -31 2 -31 6 -5 2 15 8 27 13 27 5 0 11 -12 13 -27 4
-26 4 -26 6 5 1 26 -3 32 -19 32 -16 0 -20 -6 -19 -32z"/>
<path d="M854 2222 c19 -8 19 -9 -3 -15 -28 -7 -23 -31 8 -35 19 -3 22 0 19
25 -2 19 -9 29 -23 30 -19 3 -19 3 -1 -5z m11 -32 c-3 -5 -10 -10 -16 -10 -5
0 -9 5 -9 10 0 6 7 10 16 10 8 0 12 -4 9 -10z"/>
<path d="M924 2216 c-10 -25 3 -46 28 -45 l23 2 -22 4 c-29 6 -30 23 -2 23 12
0 19 5 17 13 -7 18 -37 21 -44 3z m33 -2 c-3 -3 -12 -4 -19 -1 -8 3 -5 6 6 6
11 1 17 -2 13 -5z"/>
<path d="M986 2173 c-6 -14 -5 -15 5 -6 7 7 10 15 7 18 -3 3 -9 -2 -12 -12z"/>
<path d="M501 2108 c2 -32 3 -36 6 -15 4 27 5 28 19 10 13 -17 14 -17 21 7 7
24 8 23 14 -10 l6 -35 2 43 c1 48 -13 56 -27 15 l-10 -28 -7 28 c-11 41 -25
32 -24 -15z"/>
<path d="M692 2110 c0 -25 2 -39 5 -32 4 10 8 10 21 0 15 -12 16 -11 3 5 -11
14 -11 20 0 35 13 15 12 16 -3 4 -14 -11 -17 -10 -21 10 -2 13 -5 3 -5 -22z"/>
<path d="M741 2110 c1 -34 3 -39 8 -21 9 35 29 37 34 4 l4 -28 2 28 c0 18 -5
30 -16 34 -10 4 -21 11 -25 17 -4 6 -7 -9 -7 -34z"/>
<path d="M1034 2136 c-3 -8 -4 -25 -2 -38 2 -17 9 -23 28 -23 22 0 25 4 25 35
0 29 -4 36 -23 38 -13 2 -24 -3 -28 -12z m41 -26 c0 -16 -6 -26 -17 -28 -14
-3 -18 3 -18 28 0 25 4 31 18 28 11 -2 17 -12 17 -28z"/>
<path d="M1112 2110 c0 -41 1 -42 8 -15 4 17 8 25 9 19 0 -5 8 -19 16 -30 13
-18 14 -16 13 26 0 41 -1 42 -8 15 -4 -16 -8 -25 -9 -19 0 5 -8 19 -16 30 -13
18 -14 16 -13 -26z"/>
<path d="M604 2122 c19 -8 19 -9 -3 -15 -28 -7 -23 -31 8 -35 19 -3 22 0 19
25 -2 19 -9 29 -23 30 -19 3 -19 3 -1 -5z m11 -32 c-3 -5 -10 -10 -16 -10 -5
0 -9 5 -9 10 0 6 7 10 16 10 8 0 12 -4 9 -10z"/>
<path d="M651 2098 c2 -28 2 -29 6 -8 3 14 10 28 17 32 7 5 5 8 -6 8 -14 0
-18 -8 -17 -32z"/>
<path d="M825 2121 c17 -8 18 -10 3 -10 -27 -1 -24 -41 3 -41 16 0 20 5 17 27
-2 19 -9 29 -23 30 l-20 3 20 -9z m15 -31 c0 -5 -4 -10 -10 -10 -5 0 -10 5
-10 10 0 6 5 10 10 10 6 0 10 -4 10 -10z"/>
<path d="M871 2098 c2 -31 2 -31 6 -5 2 15 9 27 14 27 5 0 9 -12 10 -27 1 -28
1 -28 8 -4 9 34 29 37 34 6 4 -24 4 -24 3 2 -1 25 -5 28 -38 31 -37 2 -38 1
-37 -30z"/>
<path d="M534 2036 c-11 -30 0 -61 24 -62 18 -1 19 -1 2 3 -30 7 -28 60 3 66
l22 4 -23 2 c-12 0 -25 -5 -28 -13z"/>
<path d="M602 2010 c1 -28 3 -34 5 -17 2 15 8 27 13 27 5 0 11 -12 13 -27 4
-26 4 -26 6 5 1 22 -4 32 -13 32 -8 0 -17 6 -19 13 -3 6 -5 -8 -5 -33z"/>
<path d="M820 2040 c0 -5 -6 -10 -14 -10 -8 0 -16 -7 -20 -15 -8 -23 4 -45 25
-45 15 0 19 7 19 40 0 22 -2 40 -5 40 -3 0 -5 -4 -5 -10z m0 -40 c0 -21 -15
-27 -25 -10 -7 12 2 30 16 30 5 0 9 -9 9 -20z"/>
<path d="M853 2010 c0 -25 2 -35 4 -22 2 12 2 32 0 45 -2 12 -4 2 -4 -23z"/>
<path d="M1050 2014 c-7 -19 -9 -38 -6 -41 3 -4 6 -1 6 5 0 7 9 12 20 12 11 0
20 -5 20 -12 0 -6 2 -9 5 -7 6 7 -17 79 -26 79 -4 0 -13 -16 -19 -36z m30 -5
c0 -5 -4 -9 -10 -9 -5 0 -10 7 -10 16 0 8 5 12 10 9 6 -3 10 -10 10 -16z"/>
<path d="M1128 2041 l24 -6 -21 -27 c-28 -35 -27 -38 12 -37 23 1 26 3 10 6
-28 5 -28 8 -2 44 l20 29 -33 -1 c-28 -1 -30 -2 -10 -8z"/>
<path d="M678 2021 c11 -7 11 -9 -2 -14 -26 -10 -19 -37 9 -37 27 0 28 3 19
38 -4 12 -14 22 -23 22 -12 0 -13 -2 -3 -9z m12 -31 c0 -5 -4 -10 -10 -10 -5
0 -10 5 -10 10 0 6 5 10 10 10 6 0 10 -4 10 -10z"/>
<path d="M721 1998 c1 -29 2 -30 8 -9 9 34 29 37 34 6 4 -24 4 -24 3 2 -1 21
-7 29 -23 31 -20 3 -23 -1 -22 -30z"/>
<path d="M884 2015 c-9 -23 3 -45 23 -44 17 1 17 2 1 6 -24 6 -23 23 2 23 13
0 18 5 14 15 -4 8 -13 15 -20 15 -8 0 -17 -7 -20 -15z"/>
<path d="M941 1998 c2 -28 2 -29 6 -8 3 14 10 28 17 32 7 5 5 8 -6 8 -14 0
-18 -8 -17 -32z"/>
<path d="M981 1974 c0 -11 3 -14 6 -6 3 7 2 16 -1 19 -3 4 -6 -2 -5 -13z"/>
<path d="M433 1910 c0 -25 2 -35 4 -22 3 13 12 22 23 22 11 0 20 -9 23 -22 2
-13 4 -3 4 22 1 25 -1 37 -4 28 -2 -10 -13 -18 -23 -18 -10 0 -21 8 -23 18 -3
9 -5 -3 -4 -28z"/>
<path d="M647 1930 c-22 -22 -19 -53 6 -58 14 -3 17 4 17 37 0 23 -1 41 -2 40
-2 0 -11 -9 -21 -19z m13 -30 c0 -11 -4 -20 -10 -20 -5 0 -10 9 -10 20 0 11 5
20 10 20 6 0 10 -9 10 -20z"/>
<path d="M1031 1908 c2 -30 3 -35 6 -15 5 34 19 35 27 2 10 -40 26 -29 24 18
-1 40 -1 40 -5 7 l-5 -35 -13 33 c-19 45 -35 40 -34 -10z"/>
<path d="M1113 1915 c7 -19 17 -34 22 -34 6 0 15 15 22 34 15 44 7 46 -10 3
l-13 -33 -12 33 c-6 17 -13 32 -16 32 -3 0 0 -16 7 -35z"/>
<path d="M504 1916 c-10 -25 3 -46 28 -45 l23 2 -22 4 c-29 6 -30 23 -2 23 12
0 19 5 17 13 -7 18 -37 21 -44 3z m33 -2 c-3 -3 -12 -4 -19 -1 -8 3 -5 6 6 6
11 1 17 -2 13 -5z"/>
<path d="M561 1898 c1 -29 2 -30 8 -9 9 34 29 37 34 6 4 -24 4 -24 3 2 -1 21
-7 29 -23 31 -20 3 -23 -1 -22 -30z"/>
<path d="M694 1916 c-9 -23 3 -46 23 -45 17 1 17 2 1 6 -25 6 -22 23 3 23 12
0 19 5 17 13 -7 18 -37 21 -44 3z m33 -2 c-3 -3 -12 -4 -19 -1 -8 3 -5 6 6 6
11 1 17 -2 13 -5z"/>
<path d="M751 1897 c1 -21 3 -25 6 -12 8 32 20 40 39 24 10 -8 15 -9 11 -2 -4
7 0 13 10 15 10 3 -1 5 -24 6 -42 1 -43 0 -42 -31z"/>
<path d="M847 1915 c-9 -22 3 -46 22 -43 10 2 16 13 16 28 0 28 -29 40 -38 15z
m33 -15 c0 -21 -15 -27 -25 -10 -7 12 2 30 16 30 5 0 9 -9 9 -20z"/>
<path d="M911 1898 c2 -31 2 -31 6 -5 2 15 8 27 13 27 5 0 11 -12 13 -27 4
-26 4 -26 6 5 1 26 -3 32 -19 32 -16 0 -20 -6 -19 -32z"/>
<path d="M820 1891 c0 -5 -8 -12 -17 -14 -14 -4 -12 -5 5 -6 13 -1 22 5 22 14
0 8 -2 15 -5 15 -3 0 -5 -4 -5 -9z"/>
<path d="M971 1874 c0 -11 3 -14 6 -6 3 7 2 16 -1 19 -3 4 -6 -2 -5 -13z"/>
<path d="M647 1842 c6 -4 13 -23 16 -42 l4 -35 1 37 c2 25 7 38 20 41 9 3 1 5
-18 6 -19 0 -30 -3 -23 -7z"/>
<path d="M1050 1814 c-7 -19 -9 -38 -6 -41 3 -4 6 -1 6 5 0 7 9 12 20 12 11 0
20 -5 20 -12 0 -6 2 -9 5 -7 6 7 -17 79 -26 79 -4 0 -13 -16 -19 -36z m30 -5
c0 -5 -4 -9 -10 -9 -5 0 -10 7 -10 16 0 8 5 12 10 9 6 -3 10 -10 10 -16z"/>
<path d="M1128 1843 l22 -4 -20 -29 c-27 -37 -26 -40 13 -39 30 2 30 2 4 6
l-27 4 26 35 26 34 -33 -1 c-24 -1 -27 -3 -11 -6z"/>
<path d="M704 1815 c-9 -23 3 -45 23 -44 17 1 17 2 1 6 -22 5 -24 23 -3 23 8
0 15 7 15 15 0 8 -7 15 -15 15 -9 0 -18 -7 -21 -15z"/>
<path d="M761 1798 c2 -31 2 -31 6 -5 2 15 9 27 14 27 5 0 9 -12 10 -27 1 -28
1 -28 8 -4 9 34 29 37 34 6 4 -24 4 -24 3 2 -1 25 -5 28 -38 31 -37 2 -38 1
-37 -30z"/>
<path d="M860 1790 l0 -41 21 20 c24 22 22 54 -4 59 -14 3 -17 -4 -17 -38z
m30 10 c0 -11 -4 -20 -10 -20 -5 0 -10 9 -10 20 0 11 5 20 10 20 6 0 10 -9 10
-20z"/>
<path d="M924 1815 c-9 -23 3 -45 23 -44 17 1 17 2 1 6 -22 5 -24 23 -3 23 8
0 15 7 15 15 0 8 -7 15 -15 15 -9 0 -18 -7 -21 -15z"/>
<path d="M981 1774 c0 -11 3 -14 6 -6 3 7 2 16 -1 19 -3 4 -6 -2 -5 -13z"/>
<path d="M581 1708 c2 -32 3 -36 6 -15 4 27 5 28 19 10 13 -17 14 -17 21 7 7
24 8 23 14 -10 l6 -35 2 43 c1 48 -13 56 -27 15 l-10 -28 -7 28 c-11 41 -25
32 -24 -15z"/>
<path d="M760 1740 c0 -5 -6 -10 -14 -10 -8 0 -16 -7 -20 -15 -8 -23 4 -45 25
-45 15 0 19 7 19 40 0 22 -2 40 -5 40 -3 0 -5 -4 -5 -10z m0 -40 c0 -21 -15
-27 -25 -10 -7 12 2 30 16 30 5 0 9 -9 9 -20z"/>
<path d="M1054 1738 c3 -7 7 -26 10 -41 7 -31 26 -28 26 4 0 11 5 17 10 14 11
-7 14 18 3 29 -4 4 -13 -8 -19 -26 -12 -32 -13 -32 -13 -6 -1 15 -5 30 -11 33
-5 3 -8 0 -6 -7z"/>
<path d="M1130 1732 c0 -11 -4 -24 -10 -27 -12 -8 -13 -35 -1 -35 10 0 25 69
17 78 -3 3 -6 -4 -6 -16z"/>
<path d="M1163 1710 c0 -25 2 -35 4 -22 2 12 2 32 0 45 -2 12 -4 2 -4 -23z"/>
<path d="M684 1722 c19 -8 19 -9 -3 -15 -28 -7 -23 -31 8 -35 19 -3 22 0 19
25 -2 19 -9 29 -23 30 -19 3 -19 3 -1 -5z m11 -32 c-3 -5 -10 -10 -16 -10 -5
0 -9 5 -9 10 0 6 7 10 16 10 8 0 12 -4 9 -10z"/>
<path d="M792 1700 c0 -19 2 -27 5 -17 2 9 2 25 0 35 -3 9 -5 1 -5 -18z"/>
<path d="M820 1716 c0 -8 8 -17 18 -21 16 -7 15 -8 -3 -15 -16 -7 -17 -9 -3
-9 24 -1 31 14 12 29 -12 11 -12 15 -2 21 10 7 9 9 -4 9 -10 0 -18 -6 -18 -14z"/>
<path d="M874 1715 c-8 -21 2 -45 20 -45 7 0 16 7 20 15 8 21 -3 45 -20 45 -8
0 -17 -7 -20 -15z m31 -15 c0 -7 -6 -15 -12 -17 -8 -3 -13 4 -13 17 0 13 5 20
13 18 6 -3 12 -11 12 -18z"/>
<path d="M931 1698 c2 -30 2 -31 6 -5 5 34 30 36 36 2 4 -23 4 -23 3 2 -1 21
-7 29 -23 31 -20 3 -23 -1 -22 -30z"/>
<path d="M996 1673 c-6 -14 -5 -15 5 -6 7 7 10 15 7 18 -3 3 -9 -2 -12 -12z"/>
<path d="M507 1643 c-13 -13 -7 -30 16 -40 l22 -11 -25 -10 c-24 -10 -24 -11
-3 -11 32 -1 40 19 15 40 -27 21 -27 26 -4 32 14 4 14 5 1 6 -9 0 -19 -2 -22
-6z"/>
<path d="M1010 1610 c0 -37 2 -41 23 -38 18 2 22 9 22 38 0 29 -4 36 -22 38
-21 3 -23 -1 -23 -38z m40 20 c0 -5 -7 -10 -15 -10 -8 0 -15 5 -15 10 0 6 7
10 15 10 8 0 15 -4 15 -10z m0 -35 c0 -8 -7 -15 -15 -15 -8 0 -15 7 -15 15 0
8 7 15 15 15 8 0 15 -7 15 -15z"/>
<path d="M1074 1638 c3 -7 7 -26 10 -41 7 -31 26 -28 26 4 0 11 5 17 10 14 11
-7 14 18 3 29 -4 4 -13 -8 -19 -26 -12 -32 -13 -32 -13 -6 -1 15 -5 30 -11 33
-5 3 -8 0 -6 -7z"/>
<path d="M1150 1632 c0 -11 -4 -24 -10 -27 -12 -8 -13 -35 -1 -35 10 0 25 69
17 78 -3 3 -6 -4 -6 -16z"/>
<path d="M562 1608 c2 -17 9 -33 16 -34 7 -1 8 0 2 3 -14 7 -13 40 2 45 7 3 5
7 -6 11 -15 6 -17 2 -14 -25z"/>
<path d="M662 1608 c2 -17 9 -33 16 -34 7 -1 8 0 2 3 -14 7 -13 40 2 45 7 3 5
7 -6 11 -15 6 -17 2 -14 -25z"/>
<path d="M702 1608 c2 -17 9 -33 16 -34 7 -1 8 0 2 3 -14 7 -13 40 2 45 7 3 5
7 -6 11 -15 6 -17 2 -14 -25z"/>
<path d="M893 1632 c-19 -3 -23 -9 -22 -35 2 -30 2 -31 6 -4 5 34 33 36 33 2
0 -14 3 -25 8 -25 7 0 9 58 1 63 -2 2 -14 1 -26 -1z"/>
<path d="M604 1600 c1 -18 7 -26 24 -28 19 -3 22 1 21 30 -1 29 -2 30 -8 9 -9
-33 -29 -38 -34 -9 -4 21 -4 21 -3 -2z"/>
<path d="M747 1623 c-13 -12 -7 -42 11 -52 13 -8 14 -10 2 -11 -12 0 -12 -2
-2 -8 9 -6 10 -16 3 -33 l-9 -24 -7 28 c-11 41 -25 32 -24 -15 2 -32 3 -36 6
-15 4 27 5 28 19 10 13 -17 14 -17 21 7 7 24 8 23 14 -10 4 -23 6 -6 6 48 1
71 -1 82 -16 82 -10 0 -21 -3 -24 -7z m28 -23 c0 -7 -6 -15 -12 -17 -8 -3 -13
4 -13 17 0 13 5 20 13 18 6 -3 12 -11 12 -18z"/>
<path d="M824 1622 c19 -8 19 -9 -3 -15 -28 -7 -23 -31 8 -35 19 -3 22 0 19
25 -2 19 -9 29 -23 30 -19 3 -19 3 -1 -5z m11 -32 c-3 -5 -10 -10 -16 -10 -5
0 -9 5 -9 10 0 6 7 10 16 10 8 0 12 -4 9 -10z"/>
<path d="M1050 1514 c-7 -19 -9 -38 -6 -41 3 -4 6 -1 6 5 0 7 9 12 20 12 11 0
20 -5 20 -12 0 -6 2 -9 5 -7 6 7 -17 79 -26 79 -4 0 -13 -16 -19 -36z m30 -5
c0 -5 -4 -9 -10 -9 -5 0 -10 7 -10 16 0 8 5 12 10 9 6 -3 10 -10 10 -16z"/>
<path d="M1128 1543 l22 -4 -20 -29 c-27 -37 -26 -40 13 -39 30 2 30 2 4 6
l-27 4 26 35 26 34 -33 -1 c-24 -1 -27 -3 -11 -6z"/>
<path d="M205 1521 c3 -6 13 -11 21 -11 9 0 12 -5 8 -12 -5 -7 -2 -9 8 -5 9 3
21 0 27 -6 8 -8 11 -8 11 1 0 7 -2 12 -4 12 -2 0 -20 7 -41 16 -20 8 -34 10
-30 5z"/>
<path d="M804 1516 c-10 -25 3 -46 28 -45 23 0 23 0 -2 11 l-25 11 23 5 c13 2
21 9 19 15 -6 19 -36 20 -43 3z m33 -2 c-3 -3 -12 -4 -19 -1 -8 3 -5 6 6 6 11
1 17 -2 13 -5z"/>
<path d="M865 1521 c-3 -5 0 -13 6 -17 7 -4 9 -3 5 4 -3 6 2 13 11 15 16 4 16
5 1 6 -9 0 -19 -3 -23 -8z"/>
<path d="M935 1521 c17 -8 18 -10 3 -10 -27 -1 -24 -41 3 -41 16 0 20 5 17 27
-2 19 -9 29 -23 30 l-20 3 20 -9z m15 -31 c0 -5 -4 -10 -10 -10 -5 0 -10 5
-10 10 0 6 5 10 10 10 6 0 10 -4 10 -10z"/>
<path d="M882 1485 c-11 -12 -10 -15 3 -15 8 0 15 7 15 15 0 18 -2 18 -18 0z"/>
<path d="M981 1474 c0 -11 3 -14 6 -6 3 7 2 16 -1 19 -3 4 -6 -2 -5 -13z"/>
<path d="M197 1456 c-6 -15 -2 -17 25 -14 17 2 33 9 34 16 1 7 0 8 -3 2 -7
-14 -40 -13 -45 2 -3 7 -7 5 -11 -6z"/>
<path d="M361 1408 c2 -32 3 -36 6 -15 4 27 5 28 19 10 13 -17 14 -17 21 7 7
24 8 23 14 -10 l6 -35 2 43 c1 48 -13 56 -27 15 l-10 -28 -7 28 c-11 41 -25
32 -24 -15z"/>
<path d="M1030 1435 c-26 -31 13 -82 44 -56 19 16 21 42 4 59 -16 16 -33 15
-48 -3z m45 -25 c0 -29 -32 -41 -41 -16 -9 24 4 48 23 44 12 -2 18 -12 18 -28z"/>
<path d="M1101 1408 l2 -43 6 35 6 35 14 -32 c19 -45 31 -41 30 10 l-2 42 -6
-35 -6 -35 -14 33 c-19 44 -31 40 -30 -10z"/>
<path d="M452 1400 c0 -19 2 -27 5 -17 2 9 2 25 0 35 -3 9 -5 1 -5 -18z"/>
<path d="M474 1419 c-4 -7 1 -16 12 -22 17 -10 17 -11 -1 -18 -19 -7 -18 -8 3
-8 26 -1 30 24 5 34 -17 7 -16 8 2 15 16 7 17 9 3 9 -9 1 -20 -4 -24 -10z"/>
<path d="M525 1421 c-3 -5 0 -13 6 -17 7 -4 9 -3 5 4 -3 6 2 13 11 15 16 4 16
5 1 6 -9 0 -19 -3 -23 -8z"/>
<path d="M582 1400 c0 -19 2 -27 5 -17 2 9 2 25 0 35 -3 9 -5 1 -5 -18z"/>
<path d="M618 1423 c7 -3 16 -2 19 1 4 3 -2 6 -13 5 -11 0 -14 -3 -6 -6z"/>
<path d="M660 1416 c0 -8 8 -17 18 -21 16 -7 15 -8 -3 -15 -16 -7 -17 -9 -3
-9 25 -1 34 20 13 31 -14 8 -15 12 -4 19 11 7 10 9 -3 9 -10 0 -18 -6 -18 -14z"/>
<path d="M728 1423 c10 -4 9 -8 -4 -17 -9 -7 -14 -18 -10 -24 10 -17 46 -15
46 2 0 27 -12 46 -29 45 -11 0 -12 -2 -3 -6z m17 -33 c-3 -5 -10 -10 -16 -10
-5 0 -9 5 -9 10 0 6 7 10 16 10 8 0 12 -4 9 -10z"/>
<path d="M771 1418 c-2 -28 10 -48 30 -48 15 0 19 7 18 33 -2 31 -2 31 -6 4
-5 -33 -25 -31 -34 4 -4 14 -7 17 -8 7z"/>
<path d="M836 1415 c-8 -22 3 -45 23 -46 13 0 12 -2 -4 -10 l-20 -9 20 3 c15
2 21 11 23 40 3 31 0 37 -16 37 -11 0 -22 -7 -26 -15z m34 -15 c0 -21 -15 -27
-25 -10 -7 12 2 30 16 30 5 0 9 -9 9 -20z"/>
<path d="M918 1421 c11 -7 11 -9 -2 -14 -26 -10 -19 -37 9 -37 27 0 28 3 19
38 -4 12 -14 22 -23 22 -12 0 -13 -2 -3 -9z m12 -31 c0 -5 -4 -10 -10 -10 -5
0 -10 5 -10 10 0 6 5 10 10 10 6 0 10 -4 10 -10z"/>
<path d="M204 1390 c2 -24 50 -19 53 5 1 16 1 16 -3 3 -6 -21 -40 -24 -47 -5
-2 7 -3 6 -3 -3z"/>
<path d="M626 1395 c19 -14 19 -14 0 -15 -11 0 -17 -3 -13 -6 3 -4 14 -4 23 0
13 5 14 9 4 21 -7 8 -17 15 -23 15 -6 0 -2 -7 9 -15z"/>
<path d="M542 1385 c-11 -12 -10 -15 3 -15 8 0 15 7 15 15 0 18 -2 18 -18 0z"/>
<path d="M474 1336 c-11 -30 0 -61 24 -62 18 -1 19 -1 2 3 -30 7 -28 60 3 66
l22 4 -23 2 c-12 0 -25 -5 -28 -13z"/>
<path d="M543 1310 c0 -25 2 -35 4 -22 2 12 2 32 0 45 -2 12 -4 2 -4 -23z"/>
<path d="M753 1310 c0 -25 2 -35 4 -22 2 12 2 32 0 45 -2 12 -4 2 -4 -23z"/>
<path d="M940 1341 c0 -5 -9 -11 -21 -14 -29 -8 -22 -51 9 -55 20 -3 22 1 22
37 0 23 -2 41 -5 41 -3 0 -5 -4 -5 -9z m-5 -41 c0 -7 -6 -15 -12 -17 -8 -3
-13 4 -13 17 0 13 5 20 13 18 6 -3 12 -11 12 -18z"/>
<path d="M1030 1331 c-13 -26 4 -64 27 -59 25 5 40 35 27 56 -16 25 -41 26
-54 3z m45 -21 c0 -15 -6 -26 -16 -28 -19 -3 -31 21 -22 43 9 25 38 13 38 -15z"/>
<path d="M1113 1310 c0 -25 2 -35 4 -22 2 12 11 22 18 22 7 0 16 -10 18 -22 2
-13 4 -3 4 22 1 25 -1 37 -4 28 -2 -10 -11 -18 -18 -18 -7 0 -16 8 -18 18 -3
9 -5 -3 -4 -28z"/>
<path d="M585 1321 c19 -9 19 -10 -4 -10 -17 -1 -22 -5 -17 -17 3 -9 6 -18 6
-20 0 -2 10 -4 23 -3 21 0 21 1 -3 11 l-25 11 23 5 c27 4 24 26 -4 29 -18 3
-18 2 1 -6z"/>
<path d="M631 1300 c13 -36 24 -38 33 -7 9 34 6 45 -6 17 l-10 -25 -9 23 c-13
33 -20 27 -8 -8z"/>
<path d="M705 1321 c19 -9 19 -10 -4 -10 -17 -1 -22 -5 -17 -17 3 -9 6 -18 6
-20 0 -2 10 -4 23 -3 21 0 21 1 -3 11 l-25 11 23 5 c27 4 24 26 -4 29 -18 3
-18 2 1 -6z"/>
<path d="M794 1322 c19 -8 19 -9 -3 -15 -28 -7 -23 -31 8 -35 19 -3 22 0 19
25 -2 19 -9 29 -23 30 -19 3 -19 3 -1 -5z m16 -32 c0 -5 -7 -10 -16 -10 -8 0
-12 5 -9 10 3 6 10 10 16 10 5 0 9 -4 9 -10z"/>
<path d="M841 1298 c2 -31 2 -31 6 -5 2 15 8 27 13 27 5 0 11 -12 13 -27 4
-26 4 -26 6 5 1 26 -3 32 -19 32 -16 0 -20 -6 -19 -32z"/>
<path d="M966 1273 c-6 -14 -5 -15 5 -6 7 7 10 15 7 18 -3 3 -9 -2 -12 -12z"/>
<path d="M390 1210 c0 -37 2 -40 28 -39 23 2 24 2 5 6 -27 5 -31 30 -5 36 16
4 16 5 0 6 -10 0 -18 5 -18 10 0 5 8 12 18 14 13 4 11 5 -5 6 -20 1 -23 -4
-23 -39z"/>
<path d="M490 1241 c0 -5 -9 -11 -21 -14 -29 -8 -22 -51 9 -55 20 -3 22 1 22
37 0 23 -2 41 -5 41 -3 0 -5 -4 -5 -9z m-5 -41 c0 -7 -6 -15 -12 -17 -8 -3
-13 4 -13 17 0 13 5 20 13 18 6 -3 12 -11 12 -18z"/>
<path d="M611 1213 c-1 -36 2 -43 18 -43 10 0 21 7 25 15 7 20 -3 45 -19 45
-7 0 -16 6 -18 13 -3 6 -6 -7 -6 -30z m34 -13 c0 -7 -6 -15 -12 -17 -8 -3 -13
4 -13 17 0 13 5 20 13 18 6 -3 12 -11 12 -18z"/>
<path d="M842 1210 c1 -29 2 -35 5 -17 3 20 9 27 19 23 8 -3 14 -1 14 4 0 6
-6 10 -14 10 -8 0 -17 6 -19 13 -3 6 -5 -8 -5 -33z"/>
<path d="M970 1210 c0 -35 3 -40 23 -39 16 1 18 2 5 6 -10 2 -18 11 -18 18 0
7 8 16 18 18 16 4 16 5 0 6 -10 0 -18 5 -18 10 0 5 8 12 18 14 13 4 11 5 -5 6
-20 1 -23 -4 -23 -39z"/>
<path d="M1030 1210 c0 -37 2 -41 21 -38 12 2 27 11 33 21 14 22 -3 51 -33 55
-19 3 -21 -1 -21 -38z m45 0 c0 -16 -6 -26 -17 -28 -14 -3 -18 3 -18 28 0 25
4 31 18 28 11 -2 17 -12 17 -28z"/>
<path d="M1113 1210 c0 -25 2 -35 4 -22 2 12 11 22 18 22 7 0 16 -10 18 -22 2
-13 4 -3 4 22 1 25 -1 37 -4 28 -2 -10 -11 -18 -18 -18 -7 0 -16 8 -18 18 -3
9 -5 -3 -4 -28z"/>
<path d="M522 1200 c0 -19 2 -27 5 -17 2 9 2 25 0 35 -3 9 -5 1 -5 -18z"/>
<path d="M541 1198 c1 -29 2 -30 8 -9 9 34 29 37 34 6 4 -24 4 -24 3 2 -1 21
-7 29 -23 31 -20 3 -23 -1 -22 -30z"/>
<path d="M674 1200 c1 -18 7 -26 24 -28 19 -3 22 1 21 30 -1 29 -2 30 -8 9 -9
-33 -29 -38 -34 -9 -4 21 -4 21 -3 -2z"/>
<path d="M731 1197 c1 -29 2 -30 8 -8 8 31 31 40 31 12 0 -13 9 -25 23 -31 20
-8 21 -9 2 -10 -11 -1 -14 -4 -7 -7 16 -6 15 -23 -2 -23 -8 0 -16 -7 -20 -15
-8 -23 4 -45 25 -45 14 0 19 7 19 28 0 15 3 50 6 79 l7 51 -47 0 c-45 0 -46 0
-45 -31z m79 3 c0 -11 -7 -20 -15 -20 -8 0 -15 9 -15 20 0 11 7 20 15 20 8 0
15 -9 15 -20z m-10 -100 c0 -11 -4 -20 -9 -20 -14 0 -23 18 -16 30 10 17 25
11 25 -10z"/>
<path d="M881 1184 c0 -11 3 -14 6 -6 3 7 2 16 -1 19 -3 4 -6 -2 -5 -13z"/>
<path d="M467 1143 c-13 -13 -7 -30 16 -40 l22 -11 -25 -10 c-24 -10 -24 -11
-3 -11 32 -1 40 19 15 40 -27 21 -27 26 -4 32 14 4 14 5 1 6 -9 0 -19 -2 -22
-6z"/>
<path d="M893 1110 c0 -25 2 -35 4 -22 2 12 2 32 0 45 -2 12 -4 2 -4 -23z"/>
<path d="M1050 1114 c-7 -19 -9 -38 -6 -41 3 -4 6 -1 6 5 0 7 9 12 20 12 11 0
20 -5 20 -12 0 -6 2 -9 5 -7 6 7 -17 79 -26 79 -4 0 -13 -16 -19 -36z m30 -5
c0 -5 -4 -9 -10 -9 -5 0 -10 7 -10 16 0 8 5 12 10 9 6 -3 10 -10 10 -16z"/>
<path d="M1128 1141 l24 -6 -21 -27 c-28 -35 -27 -38 12 -37 23 1 26 3 10 6
-28 5 -28 8 -2 44 l20 29 -33 -1 c-28 -1 -30 -2 -10 -8z"/>
<path d="M638 1135 c-6 -7 3 -65 11 -65 7 0 7 58 -1 65 -2 3 -7 3 -10 0z"/>
<path d="M670 1121 c0 -26 10 -51 21 -51 5 0 4 9 -3 20 -11 17 -10 22 0 29 11
7 11 9 -2 14 -11 5 -16 1 -16 -12z"/>
<path d="M524 1115 c-9 -23 3 -45 23 -44 17 1 17 2 1 6 -10 2 -18 13 -18 23 0
10 8 21 18 23 16 4 16 5 -1 6 -10 0 -20 -6 -23 -14z"/>
<path d="M577 1115 c-9 -22 3 -46 22 -43 10 2 16 13 16 28 0 28 -29 40 -38 15z
m33 -15 c0 -11 -4 -20 -9 -20 -14 0 -23 18 -16 30 10 17 25 11 25 -10z"/>
<path d="M714 1119 c-4 -7 1 -16 12 -22 17 -10 17 -11 -1 -18 -19 -7 -18 -8 3
-8 26 -1 30 24 5 34 -17 7 -16 8 2 15 16 7 17 9 3 9 -9 1 -20 -4 -24 -10z"/>
<path d="M844 1121 c18 -7 18 -8 3 -14 -24 -9 -21 -37 3 -37 16 0 20 7 20 30
0 25 -4 30 -22 29 -21 0 -21 -1 -4 -8z m16 -31 c0 -5 -4 -10 -10 -10 -5 0 -10
5 -10 10 0 6 5 10 10 10 6 0 10 -4 10 -10z"/>
<path d="M924 1115 c-9 -23 3 -45 23 -44 17 1 17 2 1 6 -25 6 -22 21 5 26 21
4 21 4 -3 6 -23 2 -24 3 -5 11 18 8 18 9 2 9 -10 1 -20 -6 -23 -14z"/>
<path d="M981 1074 c0 -11 3 -14 6 -6 3 7 2 16 -1 19 -3 4 -6 -2 -5 -13z"/>
<path d="M481 1008 c1 -24 3 -35 6 -25 2 9 10 17 18 17 7 0 15 6 17 13 8 20
-2 37 -23 37 -16 0 -19 -7 -18 -42z m31 17 c0 -5 -5 -11 -11 -13 -6 -2 -11 4
-11 13 0 9 5 15 11 13 6 -2 11 -8 11 -13z"/>
<path d="M701 1013 c-1 -36 2 -43 18 -43 10 0 21 7 25 15 7 20 -3 45 -19 45
-7 0 -16 6 -18 13 -3 6 -6 -7 -6 -30z m34 -13 c0 -7 -6 -15 -12 -17 -8 -3 -13
4 -13 17 0 13 5 20 13 18 6 -3 12 -11 12 -18z"/>
<path d="M932 1010 c1 -29 2 -35 5 -17 3 20 9 27 19 23 8 -3 14 -1 14 4 0 6
-6 10 -14 10 -8 0 -17 6 -19 13 -3 6 -5 -8 -5 -33z"/>
<path d="M1061 1008 c0 -24 3 -36 6 -28 4 8 13 20 21 26 18 13 9 44 -13 44
-11 0 -15 -11 -14 -42z m29 17 c0 -8 -4 -15 -10 -15 -5 0 -10 7 -10 15 0 8 5
15 10 15 6 0 10 -7 10 -15z"/>
<path d="M1122 1013 c-6 -20 -9 -39 -7 -42 3 -2 5 1 5 7 0 7 9 12 20 12 11 0
20 -5 20 -12 0 -6 3 -9 6 -5 3 3 3 15 -1 28 -6 16 -9 18 -16 8 -4 -7 -11 -10
-15 -6 -4 4 -2 13 4 19 14 14 16 28 4 28 -5 0 -14 -17 -20 -37z"/>
<path d="M568 1035 c-6 -7 3 -65 11 -65 7 0 7 58 -1 65 -2 3 -7 3 -10 0z"/>
<path d="M608 1035 c-6 -7 3 -65 11 -65 7 0 7 58 -1 65 -2 3 -7 3 -10 0z"/>
<path d="M542 1000 c0 -19 2 -27 5 -17 2 9 2 25 0 35 -3 9 -5 1 -5 -18z"/>
<path d="M645 1021 c-3 -5 0 -13 6 -17 7 -4 9 -3 5 4 -3 6 2 13 11 15 16 4 16
5 1 6 -9 0 -19 -3 -23 -8z"/>
<path d="M764 1000 c1 -18 7 -26 24 -28 19 -3 22 1 21 30 -1 29 -2 30 -8 9 -9
-33 -29 -38 -34 -9 -4 21 -4 21 -3 -2z"/>
<path d="M821 997 c1 -29 2 -30 8 -8 9 32 31 39 31 11 0 -14 8 -24 22 -28 21
-5 21 -6 2 -14 -18 -8 -18 -8 1 -5 15 2 21 11 23 39 l3 36 -45 0 c-45 0 -46 0
-45 -31z m79 3 c0 -11 -7 -20 -15 -20 -8 0 -15 9 -15 20 0 11 7 20 15 20 8 0
15 -9 15 -20z"/>
<path d="M670 991 c0 -5 -8 -12 -17 -14 -14 -4 -12 -5 5 -6 13 -1 22 5 22 14
0 8 -2 15 -5 15 -3 0 -5 -4 -5 -9z"/>
<path d="M971 984 c0 -11 3 -14 6 -6 3 7 2 16 -1 19 -3 4 -6 -2 -5 -13z"/>
<path d="M514 936 c-11 -30 0 -61 24 -62 18 -1 19 -1 2 3 -30 7 -28 60 3 66
l22 4 -23 2 c-12 0 -25 -5 -28 -13z"/>
<path d="M582 910 c1 -28 3 -34 5 -17 2 15 8 27 13 27 5 0 11 -12 13 -27 4
-26 4 -26 6 5 1 22 -4 32 -13 32 -8 0 -17 6 -19 13 -3 6 -5 -8 -5 -33z"/>
<path d="M743 910 c0 -25 2 -35 4 -22 2 12 2 32 0 45 -2 12 -4 2 -4 -23z"/>
<path d="M1031 908 c2 -30 3 -35 6 -15 5 34 19 35 27 2 10 -40 26 -29 24 18
-1 40 -1 40 -5 7 l-5 -35 -13 33 c-19 45 -35 40 -34 -10z"/>
<path d="M1114 936 c-11 -30 0 -61 24 -62 18 -1 19 -1 2 3 -30 7 -28 60 3 66
l22 4 -23 2 c-12 0 -25 -5 -28 -13z"/>
<path d="M832 908 c2 -17 9 -33 16 -34 7 -1 8 0 2 3 -14 7 -13 40 2 45 7 3 5
7 -6 11 -15 6 -17 2 -14 -25z"/>
<path d="M872 908 c2 -17 9 -33 16 -34 7 -1 8 0 2 3 -14 7 -13 40 2 45 7 3 5
7 -6 11 -15 6 -17 2 -14 -25z"/>
<path d="M658 921 c11 -7 11 -9 -2 -14 -26 -10 -19 -37 9 -37 27 0 28 3 19 38
-4 12 -14 22 -23 22 -12 0 -13 -2 -3 -9z m12 -31 c0 -5 -4 -10 -10 -10 -5 0
-10 5 -10 10 0 6 5 10 10 10 6 0 10 -4 10 -10z"/>
<path d="M701 898 c1 -22 3 -26 6 -13 3 11 10 26 15 33 8 9 6 12 -6 12 -12 0
-16 -9 -15 -32z"/>
<path d="M774 916 c-9 -24 4 -48 23 -44 12 2 18 12 18 28 0 29 -32 41 -41 16z
m31 -16 c0 -7 -6 -15 -12 -17 -8 -3 -13 4 -13 17 0 13 5 20 13 18 6 -3 12 -11
12 -18z"/>
<path d="M914 915 c-9 -23 3 -45 23 -44 17 1 17 2 1 6 -25 6 -22 21 5 26 21 4
21 4 -3 6 -23 2 -24 3 -5 11 18 8 18 9 2 9 -10 1 -20 -6 -23 -14z"/>
<path d="M971 874 c0 -11 3 -14 6 -6 3 7 2 16 -1 19 -3 4 -6 -2 -5 -13z"/>
<path d="M531 808 c2 -32 3 -36 6 -15 4 27 5 28 19 10 13 -17 14 -17 21 7 7
24 8 23 14 -10 l6 -35 2 43 c1 48 -13 56 -27 15 l-10 -28 -7 28 c-11 41 -25
32 -24 -15z"/>
<path d="M943 810 c0 -25 2 -35 4 -22 2 12 2 32 0 45 -2 12 -4 2 -4 -23z"/>
<path d="M1042 838 c-19 -19 -14 -45 10 -62 22 -16 48 -22 35 -10 -3 4 -2 15
4 25 6 13 6 25 -1 39 -12 23 -30 26 -48 8z m42 -13 c8 -21 -3 -45 -20 -45 -18
0 -28 24 -20 45 3 8 12 15 20 15 7 0 16 -7 20 -15z"/>
<path d="M1114 836 c-12 -31 0 -61 26 -63 25 -3 25 -3 3 7 -13 5 -23 18 -23
30 0 12 9 24 23 30 l22 9 -23 0 c-12 1 -25 -5 -28 -13z"/>
<path d="M738 834 c-3 -2 -3 -17 0 -34 3 -20 10 -30 21 -29 10 0 11 2 4 6 -16
6 -17 40 -1 45 8 3 6 6 -4 10 -9 4 -18 5 -20 2z"/>
<path d="M614 816 c-9 -24 4 -48 23 -44 12 2 18 12 18 28 0 29 -32 41 -41 16z
m36 -16 c0 -11 -7 -20 -15 -20 -8 0 -15 9 -15 20 0 11 7 20 15 20 8 0 15 -9
15 -20z"/>
<path d="M671 798 c1 -29 2 -30 8 -9 9 34 29 37 34 6 4 -24 4 -24 3 2 -1 21
-7 29 -23 31 -20 3 -23 -1 -22 -30z"/>
<path d="M781 798 c2 -28 2 -29 6 -8 3 14 10 28 17 32 7 5 5 8 -6 8 -14 0 -18
-8 -17 -32z"/>
<path d="M824 815 c-9 -23 3 -45 23 -44 17 1 17 2 1 6 -24 6 -23 23 2 23 13 0
18 5 14 15 -4 8 -13 15 -20 15 -8 0 -17 -7 -20 -15z"/>
<path d="M894 821 c18 -7 18 -8 3 -14 -24 -9 -21 -37 3 -37 16 0 20 7 20 30 0
25 -4 30 -22 29 -21 0 -21 -1 -4 -8z m16 -31 c0 -5 -4 -10 -10 -10 -5 0 -10 5
-10 10 0 6 5 10 10 10 6 0 10 -4 10 -10z"/>
<path d="M971 774 c0 -11 3 -14 6 -6 3 7 2 16 -1 19 -3 4 -6 -2 -5 -13z"/>
<path d="M591 708 c1 -24 3 -35 6 -25 2 9 10 17 18 17 7 0 15 6 17 13 8 20 -2
37 -23 37 -16 0 -19 -7 -18 -42z m31 17 c0 -5 -5 -11 -11 -13 -6 -2 -11 4 -11
13 0 9 5 15 11 13 6 -2 11 -8 11 -13z"/>
<path d="M652 710 c1 -29 2 -35 5 -17 3 20 9 27 19 23 8 -3 14 -1 14 4 0 6 -6
10 -14 10 -8 0 -17 6 -19 13 -3 6 -5 -8 -5 -33z"/>
<path d="M1067 744 c-11 -11 -9 -26 3 -19 6 3 10 -1 10 -10 0 -11 -5 -15 -14
-12 -14 6 -32 -21 -21 -31 3 -3 5 0 5 6 0 16 37 15 43 0 4 -9 6 -8 6 2 0 24
-23 72 -32 64z"/>
<path d="M1128 743 c27 -5 27 -8 1 -44 l-20 -29 33 1 c28 1 30 2 10 8 l-24 6
21 27 c28 35 27 38 -11 37 -24 -1 -27 -3 -10 -6z"/>
<path d="M714 716 c-9 -24 4 -48 23 -44 12 2 18 12 18 28 0 29 -32 41 -41 16z
m31 -16 c0 -7 -6 -15 -12 -17 -8 -3 -13 4 -13 17 0 13 5 20 13 18 6 -3 12 -11
12 -18z"/>
<path d="M774 716 c-9 -23 3 -46 23 -45 17 1 17 2 1 6 -25 6 -22 23 3 23 12 0
19 5 17 13 -7 18 -37 21 -44 3z m33 -2 c-3 -3 -12 -4 -19 -1 -8 3 -5 6 6 6 11
1 17 -2 13 -5z"/>
<path d="M831 698 c1 -29 2 -30 8 -9 9 34 29 37 34 6 4 -24 4 -24 3 2 -1 21
-7 29 -23 31 -20 3 -23 -1 -22 -30z"/>
<path d="M902 700 c0 -19 2 -27 5 -17 2 9 2 25 0 35 -3 9 -5 1 -5 -18z"/>
<path d="M937 711 c2 -7 -2 -21 -9 -30 -11 -14 -11 -14 3 -4 9 8 19 9 25 3 5
-5 9 2 9 20 0 20 -3 26 -12 19 -6 -6 -13 -6 -15 -2 -3 4 -3 2 -1 -6z"/>
<path d="M691 684 c0 -11 3 -14 6 -6 3 7 2 16 -1 19 -3 4 -6 -2 -5 -13z"/>
<path d="M986 673 c-6 -14 -5 -15 5 -6 7 7 10 15 7 18 -3 3 -9 -2 -12 -12z"/>
<path d="M472 613 c-2 -39 0 -43 21 -42 16 1 17 3 5 6 -11 3 -18 17 -21 41
l-4 37 -1 -42z"/>
<path d="M673 615 c15 -43 29 -43 44 0 15 44 7 46 -10 3 l-13 -33 -12 33 c-6
17 -13 32 -16 32 -3 0 0 -16 7 -35z"/>
<path d="M1042 608 c1 -41 1 -41 5 -8 l5 35 13 -32 c19 -46 35 -41 34 10 l-2
42 -7 -35 -7 -35 -12 33 c-18 45 -31 40 -29 -10z"/>
<path d="M1111 644 c-1 -18 20 -74 28 -74 8 0 33 72 27 78 -2 1 -9 -12 -16
-30 l-12 -33 -13 35 c-8 19 -14 30 -14 24z"/>
<path d="M544 622 c19 -8 19 -9 -3 -15 -28 -7 -23 -31 8 -35 19 -3 22 0 19 25
-2 19 -9 29 -23 30 -19 3 -19 3 -1 -5z m11 -32 c-3 -5 -10 -10 -16 -10 -5 0
-9 5 -9 10 0 6 7 10 16 10 8 0 12 -4 9 -10z"/>
<path d="M585 621 c-3 -5 0 -13 6 -17 7 -4 9 -3 5 4 -3 6 2 13 11 15 16 4 16
5 1 6 -9 0 -19 -3 -23 -8z"/>
<path d="M740 615 c-15 -18 3 -45 29 -44 10 0 7 4 -9 11 -25 11 -25 11 -2 15
12 3 22 11 22 19 0 18 -24 18 -40 -1z"/>
<path d="M807 623 c-15 -14 -7 -53 11 -54 15 0 14 -2 -3 -10 l-20 -9 20 3 c15
2 21 11 23 40 2 26 -1 37 -11 37 -7 0 -17 -3 -20 -7z m23 -23 c0 -11 -4 -20
-10 -20 -5 0 -10 9 -10 20 0 11 5 20 10 20 6 0 10 -9 10 -20z"/>
<path d="M878 623 c10 -4 9 -8 -4 -17 -9 -7 -14 -18 -10 -24 10 -17 46 -15 46
2 0 27 -12 46 -29 45 -11 0 -12 -2 -3 -6z m17 -33 c-3 -5 -10 -10 -16 -10 -5
0 -9 5 -9 10 0 6 7 10 16 10 8 0 12 -4 9 -10z"/>
<path d="M924 619 c-4 -7 1 -16 12 -22 17 -10 17 -11 -1 -18 -19 -7 -18 -8 3
-8 26 -1 30 24 5 34 -17 7 -16 8 2 15 16 7 17 9 3 9 -9 1 -20 -4 -24 -10z"/>
<path d="M610 591 c0 -5 -8 -12 -17 -14 -14 -4 -12 -5 5 -6 13 -1 22 5 22 14
0 8 -2 15 -5 15 -3 0 -5 -4 -5 -9z"/>
<path d="M587 542 c6 -4 13 -23 16 -42 l4 -35 1 37 c2 25 7 38 20 41 9 3 1 5
-18 6 -19 0 -30 -3 -23 -7z"/>
<path d="M1030 535 c-26 -31 13 -82 44 -56 19 16 21 42 4 59 -16 16 -33 15
-48 -3z m45 -25 c0 -29 -32 -41 -41 -16 -9 24 4 48 23 44 12 -2 18 -12 18 -28z"/>
<path d="M1101 508 l2 -43 6 35 6 35 14 -32 c19 -45 31 -41 30 10 l-2 42 -6
-35 -6 -35 -14 33 c-19 44 -31 40 -30 -10z"/>
<path d="M862 508 c2 -17 9 -33 16 -34 7 -1 8 0 2 3 -14 7 -13 40 2 45 7 3 5
7 -6 11 -15 6 -17 2 -14 -25z"/>
<path d="M645 521 c-3 -7 0 -8 9 -5 12 4 16 0 16 -16 0 -17 -4 -21 -17 -15
-15 5 -16 4 -5 -6 15 -16 35 1 30 27 -4 21 -23 30 -33 15z"/>
<path d="M701 498 c2 -28 2 -29 6 -8 3 14 10 28 17 32 7 5 5 8 -6 8 -14 0 -18
-8 -17 -32z"/>
<path d="M744 515 c-8 -21 2 -45 20 -45 7 0 16 7 20 15 8 21 -3 45 -20 45 -8
0 -17 -7 -20 -15z m31 -15 c0 -7 -6 -15 -12 -17 -8 -3 -13 4 -13 17 0 13 5 20
13 18 6 -3 12 -11 12 -18z"/>
<path d="M801 498 c2 -32 2 -32 6 -5 5 33 25 31 34 -4 4 -14 7 -17 8 -7 2 28
-10 48 -30 48 -15 0 -19 -7 -18 -32z"/>
<path d="M904 516 c-9 -24 4 -48 23 -44 12 2 18 12 18 28 0 29 -32 41 -41 16z
m31 -16 c0 -7 -6 -15 -12 -17 -8 -3 -13 4 -13 17 0 13 5 20 13 18 6 -3 12 -11
12 -18z"/>
<path d="M1237 293 c-11 -10 -8 -61 4 -69 6 -3 16 -1 22 5 9 9 8 11 -5 6 -15
-6 -18 -1 -18 25 0 25 3 31 16 26 8 -3 12 -2 9 4 -7 12 -19 13 -28 3z"/>
<path d="M1608 293 c6 -2 12 -17 12 -33 0 -16 -6 -31 -12 -33 -7 -3 -4 -6 7
-6 18 -1 20 4 17 39 -3 29 -8 40 -21 39 -10 0 -11 -2 -3 -6z"/>
<path d="M1654 286 c-11 -28 0 -61 21 -61 16 0 20 7 20 35 0 25 -5 36 -18 38
-9 2 -20 -3 -23 -12z m36 -26 c0 -20 -5 -30 -15 -30 -10 0 -15 10 -15 30 0 20
5 30 15 30 10 0 15 -10 15 -30z"/>
<path d="M1725 291 c-3 -7 0 -8 9 -5 13 5 16 -1 16 -26 0 -26 -3 -31 -17 -25
-15 5 -16 4 -5 -6 17 -18 34 2 30 37 -3 29 -21 43 -33 25z"/>
<path d="M1784 286 c-10 -25 0 -61 18 -64 19 -4 32 29 23 58 -7 23 -33 27 -41
6z m31 -26 c0 -13 -6 -25 -12 -27 -9 -3 -13 6 -13 27 0 21 4 30 13 28 6 -3 12
-15 12 -28z"/>
<path d="M2093 293 c21 -6 22 -26 2 -43 -22 -18 -18 -30 8 -30 17 0 19 2 8 9
-12 8 -12 12 -2 25 17 20 7 46 -16 45 -17 -1 -17 -2 0 -6z"/>
<path d="M2134 286 c-11 -28 0 -61 21 -61 16 0 20 7 20 35 0 25 -5 36 -18 38
-9 2 -20 -3 -23 -12z m36 -26 c0 -20 -5 -30 -15 -30 -10 0 -15 10 -15 30 0 20
5 30 15 30 10 0 15 -10 15 -30z"/>
<path d="M2205 291 c-3 -7 0 -8 9 -5 13 5 16 -1 16 -26 0 -26 -3 -31 -17 -25
-15 5 -16 4 -5 -6 17 -18 34 2 30 37 -3 29 -21 43 -33 25z"/>
<path d="M2264 286 c-10 -25 0 -61 18 -64 19 -4 32 29 23 58 -7 23 -33 27 -41
6z m31 -26 c0 -13 -6 -25 -12 -27 -9 -3 -13 6 -13 27 0 21 4 30 13 28 6 -3 12
-15 12 -28z"/>
<path d="M2563 293 c20 -5 23 -19 5 -25 -7 -3 -6 -7 5 -11 13 -5 17 -1 17 18
0 20 -5 25 -22 24 -17 -1 -19 -2 -5 -6z"/>
<path d="M2604 286 c-11 -28 0 -61 21 -61 16 0 20 7 20 35 0 25 -5 36 -18 38
-9 2 -20 -3 -23 -12z m36 -26 c0 -20 -5 -30 -15 -30 -10 0 -15 10 -15 30 0 20
5 30 15 30 10 0 15 -10 15 -30z"/>
<path d="M2675 291 c-3 -7 0 -8 9 -5 13 5 16 -1 16 -26 0 -26 -3 -31 -17 -25
-15 5 -16 4 -5 -6 17 -18 34 2 30 37 -3 29 -21 43 -33 25z"/>
<path d="M2734 286 c-10 -25 0 -61 18 -64 19 -4 32 29 23 58 -7 23 -33 27 -41
6z m31 -26 c0 -13 -6 -25 -12 -27 -9 -3 -13 6 -13 27 0 21 4 30 13 28 6 -3 12
-15 12 -28z"/>
<path d="M3027 270 c-18 -29 -18 -30 2 -30 10 0 22 -6 24 -12 4 -10 6 -9 6 1
1 11 4 11 16 1 25 -21 47 -4 43 32 -4 42 -38 47 -49 8 l-7 -25 -1 28 c-1 35
-12 34 -34 -3z m83 -10 c0 -20 -5 -30 -15 -30 -10 0 -15 10 -15 30 0 20 5 30
15 30 10 0 15 -10 15 -30z m-64 -7 c-10 -10 -19 5 -10 18 6 11 8 11 12 0 2 -7
1 -15 -2 -18z"/>
<path d="M3145 291 c-3 -7 0 -8 9 -5 13 5 16 -1 16 -26 0 -26 -3 -31 -17 -25
-15 5 -16 4 -5 -6 17 -18 34 2 30 37 -3 29 -21 43 -33 25z"/>
<path d="M3204 286 c-10 -25 0 -61 18 -64 19 -4 32 29 23 58 -7 23 -33 27 -41
6z m31 -26 c0 -13 -6 -25 -12 -27 -9 -3 -13 6 -13 27 0 21 4 30 13 28 6 -3 12
-15 12 -28z"/>
<path d="M3490 280 c0 -11 7 -20 15 -20 21 0 19 -28 -2 -33 -17 -4 -17 -5 0
-6 25 -1 34 29 14 44 -22 16 -21 22 1 28 13 4 11 5 -5 6 -17 1 -23 -5 -23 -19z"/>
<path d="M3544 286 c-11 -28 0 -61 21 -61 16 0 20 7 20 35 0 25 -5 36 -18 38
-9 2 -20 -3 -23 -12z m36 -26 c0 -20 -5 -30 -15 -30 -10 0 -15 10 -15 30 0 20
5 30 15 30 10 0 15 -10 15 -30z"/>
<path d="M3615 291 c-3 -7 0 -8 9 -5 13 5 16 -1 16 -26 0 -26 -3 -31 -17 -25
-15 5 -16 4 -5 -6 17 -18 34 2 30 37 -3 29 -21 43 -33 25z"/>
<path d="M3674 286 c-10 -25 0 -61 18 -64 19 -4 32 29 23 58 -7 23 -33 27 -41
6z m31 -26 c0 -13 -6 -25 -12 -27 -9 -3 -13 6 -13 27 0 21 4 30 13 28 6 -3 12
-15 12 -28z"/>
<path d="M3974 286 c-3 -8 -4 -25 -2 -38 3 -20 9 -23 48 -23 45 0 45 0 45 35
0 26 -5 36 -18 38 -12 2 -20 -3 -24 -16 -3 -14 -11 -18 -24 -15 -24 7 -25 20
-1 26 16 4 16 5 -1 6 -10 0 -20 -5 -23 -13z m86 -26 c0 -20 -5 -30 -15 -30
-10 0 -15 10 -15 30 0 20 5 30 15 30 10 0 15 -10 15 -30z m-58 -15 c0 -5 -5
-11 -11 -13 -6 -2 -11 4 -11 13 0 9 5 15 11 13 6 -2 11 -8 11 -13z"/>
<path d="M4095 291 c-3 -7 0 -8 9 -5 13 5 16 -1 16 -26 0 -26 -3 -31 -17 -25
-15 5 -16 4 -5 -6 17 -18 34 2 30 37 -3 29 -21 43 -33 25z"/>
<path d="M4154 286 c-10 -25 0 -61 18 -64 19 -4 32 29 23 58 -7 23 -33 27 -41
6z m31 -26 c0 -13 -6 -25 -12 -27 -9 -3 -13 6 -13 27 0 21 4 30 13 28 6 -3 12
-15 12 -28z"/>
<path d="M4453 293 c13 -3 16 -10 11 -26 -14 -45 -14 -51 0 -22 21 42 19 55
-6 54 -18 -1 -19 -2 -5 -6z"/>
<path d="M4494 286 c-11 -28 0 -61 21 -61 16 0 20 7 20 35 0 25 -5 36 -18 38
-9 2 -20 -3 -23 -12z m36 -26 c0 -20 -5 -30 -15 -30 -10 0 -15 10 -15 30 0 20
5 30 15 30 10 0 15 -10 15 -30z"/>
<path d="M4565 291 c-3 -7 0 -8 9 -5 13 5 16 -1 16 -26 0 -26 -3 -31 -17 -25
-15 5 -16 4 -5 -6 17 -18 34 2 30 37 -3 29 -21 43 -33 25z"/>
<path d="M4624 286 c-10 -25 0 -61 18 -64 19 -4 32 29 23 58 -7 23 -33 27 -41
6z m31 -26 c0 -13 -6 -25 -12 -27 -9 -3 -13 6 -13 27 0 21 4 30 13 28 6 -3 12
-15 12 -28z"/>
<path d="M2565 230 c-16 -7 -17 -9 -3 -9 9 -1 20 4 23 9 7 11 7 11 -20 0z"/>
<path d="M2532 144 c-13 -14 -5 -19 21 -15 4 0 7 -3 7 -9 0 -5 -9 -10 -20 -10
-14 0 -18 -5 -13 -16 5 -13 7 -13 14 -2 7 10 9 10 9 0 0 -10 3 -10 13 0 15 13
16 42 3 45 -5 1 -12 6 -15 11 -4 6 -11 4 -19 -4z"/>
<path d="M2698 148 c-2 -7 -1 -26 3 -43 6 -28 7 -28 9 -5 1 14 3 33 5 43 4 19
-11 24 -17 5z"/>
<path d="M2918 145 c-6 -7 3 -65 11 -65 7 0 7 58 -1 65 -2 3 -7 3 -10 0z"/>
<path d="M3248 145 c-6 -7 3 -65 11 -65 7 0 7 58 -1 65 -2 3 -7 3 -10 0z"/>
<path d="M2634 126 c-9 -24 4 -48 23 -44 12 2 18 12 18 28 0 29 -32 41 -41 16z
m36 -16 c0 -11 -7 -20 -15 -20 -8 0 -15 9 -15 20 0 11 7 20 15 20 8 0 15 -9
15 -20z"/>
<path d="M2761 108 c2 -28 2 -29 6 -8 3 14 10 28 17 32 7 5 5 8 -6 8 -14 0
-18 -8 -17 -32z"/>
<path d="M2804 126 c-9 -23 3 -46 23 -45 17 1 17 2 1 6 -25 6 -22 23 3 23 12
0 19 5 17 13 -7 18 -37 21 -44 3z m33 -2 c-3 -3 -12 -4 -19 -1 -8 3 -5 6 6 6
11 1 17 -2 13 -5z"/>
<path d="M2864 129 c-4 -7 1 -16 12 -22 17 -10 17 -11 -1 -18 -19 -7 -18 -8 3
-8 26 -1 30 24 5 34 -17 7 -16 8 2 15 16 7 17 9 3 9 -9 1 -20 -4 -24 -10z"/>
<path d="M2974 132 c19 -8 19 -9 -3 -15 -28 -7 -23 -31 8 -35 19 -3 22 0 19
25 -2 19 -9 29 -23 30 -19 3 -19 3 -1 -5z m11 -32 c-3 -5 -10 -10 -16 -10 -5
0 -9 5 -9 10 0 6 7 10 16 10 8 0 12 -4 9 -10z"/>
<path d="M3021 113 c-1 -27 3 -33 19 -33 16 0 20 6 19 33 -2 30 -2 30 -6 5 -2
-16 -8 -28 -13 -28 -5 0 -11 12 -13 28 -4 25 -4 25 -6 -5z"/>
<path d="M3081 108 c2 -28 2 -29 6 -8 3 14 10 28 17 32 7 5 5 8 -6 8 -14 0
-18 -8 -17 -32z"/>
<path d="M3138 131 c11 -7 11 -9 -2 -14 -26 -10 -19 -37 9 -37 27 0 28 3 19
38 -4 12 -14 22 -23 22 -12 0 -13 -2 -3 -9z m12 -31 c0 -5 -4 -10 -10 -10 -5
0 -10 5 -10 10 0 6 5 10 10 10 6 0 10 -4 10 -10z"/>
<path d="M3181 108 c1 -29 2 -30 8 -9 9 34 29 37 34 6 4 -24 4 -24 3 2 -1 21
-7 29 -23 31 -20 3 -23 -1 -22 -30z"/>
<path d="M3285 131 c-3 -5 0 -13 6 -17 7 -4 9 -3 5 4 -3 6 2 13 11 15 16 4 16
5 1 6 -9 0 -19 -3 -23 -8z"/>
<path d="M3310 101 c0 -5 -8 -12 -17 -14 -14 -4 -12 -5 5 -6 13 -1 22 5 22 14
0 8 -2 15 -5 15 -3 0 -5 -4 -5 -9z"/>
</g>
</svg>
